Coordinates
version=1
nRows=22
nColumns=24
inDegrees=yes

Units are S.I. units (second, meters, Newtons, ...)
Angles are in degrees.

endheader
time	pelvis_tilt	pelvis_list	pelvis_rotation	pelvis_tx	pelvis_ty	pelvis_tz	hip_flexion_r	hip_adduction_r	hip_rotation_r	knee_angle_r	ankle_angle_r	subtalar_angle_r	mtp_angle_r	hip_flexion_l	hip_adduction_l	hip_rotation_l	knee_angle_l	ankle_angle_l	subtalar_angle_l	mtp_angle_l	lumbar_extension	lumbar_bending	lumbar_rotation
      1.92000000	     18.31972105	     -4.72462867	      5.23284259	     -0.03774943	      0.95092669	      0.28393830	    -27.92461587	      9.22318126	      2.71400505	     -4.14414131	     22.26865748	      2.04016269	     16.59439603	     10.54947298	     -6.45058814	     -8.47610749	    -33.76375250	     19.45898257	      4.35906107	     39.88780006	    -34.32479672	      8.50404912	      5.89493633
      1.92500000	     18.71307266	     -4.39448899	      4.93186562	     -0.03083759	      0.95086149	      0.28368783	    -29.00906563	      8.73304077	      2.71865794	     -3.90043479	     22.55733184	      2.46503962	     16.40972069	      9.60100040	     -6.02464161	     -9.12592271	    -30.91008132	     18.93538755	      4.82105005	     39.74477230	    -34.74582186	      7.99297769	      6.10016198
      1.93000000	     19.07695298	     -4.12476975	      4.67723470	     -0.02401112	      0.95065489	      0.28331565	    -29.99006077	      8.31124858	      2.65364494	     -3.76670536	     22.86550164	      2.98956878	     16.34861575	      8.72491224	     -5.64282855	     -9.67489547	    -28.13991748	     18.37428264	      5.43463521	     39.44754396	    -35.12966455	      7.56878682	      6.28265654
      1.93500000	     19.37677816	     -3.91918917	      4.41254404	     -0.01720580	      0.95028287	      0.28289371	    -30.91135193	      7.93785285	      2.62179307	     -3.60114953	     23.14579338	      3.42067086	     16.30968708	      7.91835212	     -5.29462976	    -10.17739773	    -25.37516966	     17.68247650	      5.92580725	     39.18728713	    -35.45405878	      7.21055074	      6.47662948
      1.94000000	     19.65229606	     -3.73947280	      4.24530303	     -0.01030013	      0.94980530	      0.28238817	    -31.83028649	      7.64761184	      2.61751471	     -3.38830376	     23.36073964	      3.67999615	     16.27930722	      7.18139247	     -4.96781991	    -10.57951168	    -22.71196332	     16.99966692	      6.58331769	     38.96031071	    -35.72659475	      6.92289905	      6.57514250
      1.94500000	     19.84252092	     -3.59399185	      4.18399707	     -0.00331178	      0.94907272	      0.28174086	    -32.63511029	      7.45069594	      2.40411349	     -3.21756688	     23.58941806	      4.03383903	     16.30974185	      6.58565944	     -4.65181994	    -10.84882171	    -20.17751961	     16.33587342	      7.28511227	     38.69871614	    -35.88659500	      6.72256855	      6.64323956
      1.95000000	     19.88975490	     -3.59960785	      4.17236400	      0.00345653	      0.94803638	      0.28103730	    -33.17474779	      7.42676602	      2.24493324	     -3.20303272	     23.82265952	      4.30750878	     16.35692383	      6.24366521	     -4.48767176	    -10.99349745	    -17.83867763	     15.68911997	      7.91463498	     38.47506757	    -35.91688120	      6.68388662	      6.72584482
      1.95500000	     19.96159628	     -3.61455158	      4.14336037	      0.01029922	      0.94703790	      0.28043394	    -33.78429009	      7.40725433	      2.19868355	     -3.11563350	     23.98660571	      4.44217755	     16.41992038	      5.86776602	     -4.34960745	    -11.21804339	    -15.58809162	     15.07820433	      8.64714520	     38.30535778	    -35.97273292	      6.62423567	      6.87809009
      1.96000000	     20.01479121	     -3.59025538	      4.11101585	      0.01713043	      0.94596900	      0.27971463	    -34.33542725	      7.33123009	      2.02215961	     -3.10106875	     24.24343483	      4.80071916	     16.52150746	      5.50518283	     -4.14344660	    -11.35709011	    -13.43154163	     14.55627490	      9.27932861	     38.19048246	    -36.00849848	      6.55733303	      6.99645610
      1.96500000	     20.11213766	     -3.59189682	      4.13790957	      0.02392358	      0.94494549	      0.27894917	    -34.94552444	      7.32445884	      1.89322827	     -3.05875965	     24.38121589	      4.96134532	     16.62598528	      5.13418245	     -3.97096439	    -11.41118322	    -11.44282163	     14.16100012	      9.86667464	     38.05166896	    -36.08439417	      6.53280808	      6.99462079
      1.97000000	     20.13773673	     -3.63234212	      4.17710155	      0.03065518	      0.94381608	      0.27803771	    -35.38974009	      7.34246963	      1.64270464	     -3.17863107	     24.59683851	      5.36232505	     16.81628553	      4.85198939	     -3.82211053	    -11.40072262	     -9.58854019	     13.88294845	     10.47091710	     37.98453785	    -36.07806969	      6.54881337	      7.03381252
      1.97500000	     20.07124330	     -3.73008065	      4.43478607	      0.03730673	      0.94243272	      0.27676435	    -35.69527231	      7.54200437	      1.19339349	     -3.34275752	     24.80099519	      5.71251057	     17.00561933	      4.80835515	     -3.71768584	    -11.13702965	     -8.08152273	     13.79093360	     11.11171348	     37.91630061	    -35.98028525	      6.77519229	      6.95669816
      1.98000000	     19.96207564	     -3.79876031	      4.66697701	      0.04412865	      0.94099595	      0.27550026	    -35.96254491	      7.69057297	      0.75240995	     -3.51613947	     25.01919327	      6.13470624	     17.26054811	      4.83484297	     -3.59311707	    -10.95165488	     -6.81089915	     13.85715902	     11.72620199	     37.79992300	    -35.80803767	      6.95124781	      6.85250723
      1.98500000	     19.83891834	     -3.88366663	      4.91125687	      0.05082982	      0.93955743	      0.27427485	    -36.20224588	      7.86461010	      0.41095613	     -3.69286842	     25.17646665	      6.37979576	     17.48614118	      4.92750044	     -3.50345175	    -10.74306630	     -5.78025883	     13.90685424	     12.39884656	     37.71361117	    -35.62830718	      7.13600268	      6.80383040
      1.99000000	     19.67784495	     -4.01439500	      5.09620581	      0.05764647	      0.93814836	      0.27312895	    -36.36831210	      8.04085331	      0.14277786	     -3.94362929	     25.31407090	      6.64654633	     17.75322488	      5.12442268	     -3.48989311	    -10.73742911	     -5.06601665	     14.06754201	     13.18547955	     37.66502613	    -35.40640094	      7.32785634	      6.77437788
      1.99500000	     19.56978709	     -4.14883677	      5.28578969	      0.06436654	      0.93679386	      0.27198690	    -36.54722115	      8.22270238	     -0.05993220	     -4.24996229	     25.42765449	      6.86558238	     18.03108550	      5.30699347	     -3.51013036	    -10.69706565	     -4.60727561	     14.32290204	     13.91504605	     37.61947654	    -35.25767283	      7.52901058	      6.71742706
      2.00000000	     19.40037759	     -4.29946759	      5.45287628	      0.07108559	      0.93536870	      0.27090998	    -36.66748311	      8.40173620	     -0.16983712	     -4.51621294	     25.33688146	      6.92197929	     19.92268193	      5.65763208	     -3.57361976	    -10.70920301	     -4.53892246	     14.54373707	     14.69943113	     36.91890743	    -35.03469888	      7.72748844	      6.74600018
      2.00500000	     19.30882152	     -4.35502708	      5.57844718	      0.07823441	      0.93409999	      0.26986719	    -36.90865564	      8.47252321	     -0.37678244	     -4.80992295	     25.44729616	      7.19761071	     20.06799896	      5.88981753	     -3.55756808	    -10.70972372	     -4.67843071	     14.71199750	     15.18844923	     36.95290353	    -34.87351564	      7.79949672	      6.64888618
      2.01000000	     19.26670377	     -4.41535626	      5.66471687	      0.08557389	      0.93299002	      0.26904177	    -37.13433450	      8.53168666	     -0.64999221	     -5.27485162	     25.56409452	      7.56774729	     20.30210733	      6.03846954	     -3.58104293	    -10.55495920	     -4.96750914	     14.86921553	     15.52646946	     36.95444240	    -34.74660644	      7.84910562	      6.57557942
      2.01500000	     19.18286275	     -4.36559936	      5.78298684	      0.09287317	      0.93182677	      0.26810536	    -37.29257044	      8.49133813	     -0.96968629	     -5.77706651	     25.70353663	      7.96061570	     21.15166184	      6.19638690	     -3.45659972	     -9.95348943	     -5.34729163	     14.86596337	     15.12944317	     36.81594872	    -34.56984686	      7.82080463	      6.41804911
      2.02000000	     19.23220388	     -4.29132321	      5.73236133	      0.10023985	      0.93102202	      0.26743529	    -37.60236932	      8.32705154	     -1.13933843	     -6.27859907	     25.65622597	      8.35384638	     22.40684620	      6.20553349	     -3.36280973	     -9.62682123	     -5.95444986	     14.88296156	     14.83779595	     36.45297156	    -34.57219811	      7.67583641	      6.36611382
      2.02500000	     19.21747909	     -4.17176520	      5.50710838	      0.10784577	      0.93028501	      0.26687724	    -37.80218219	      7.99553590	     -1.20962278	     -6.91752985	     25.82106105	      8.83269599	     22.71776532	      6.23858888	     -3.23069999	     -9.53947061	     -6.70267498	     14.96206032	     14.56213377	     36.32151577	    -34.49029634	      7.38041256	      6.50829145
